<?xml version="1.0" encoding="iso-8859-1"?>
<!-- Generator: Adobe Illustrator 16.0.0, SVG Export Plug-In . SVG Version: 6.00 Build 0)  -->
<!DOCTYPE svg PUBLIC "-//W3C//DTD SVG 1.1//EN" "http://www.w3.org/Graphics/SVG/1.1/DTD/svg11.dtd">
<svg version="1.1" id="Capa_1" xmlns="http://www.w3.org/2000/svg" xmlns:xlink="http://www.w3.org/1999/xlink" x="0px" y="0px"
	 width="792px" height="792px" viewBox="0 0 792 792" style="enable-background:new 0 0 792 792;" xml:space="preserve">
<g>
	<g id="Location">
		<g>
			<path d="M398.275,188.651c-49.959,0-90.433,39.885-90.433,89.074c0,49.189,40.497,89.051,90.433,89.051
				c49.958,0,90.432-39.862,90.432-89.051C488.707,228.537,448.211,188.651,398.275,188.651z M425.303,668.36l56.523-124.002
				c114.336-35.811,197.207-141.16,197.207-265.592C679.033,124.771,552.315,0,396.011,0C239.685,0,112.967,124.771,112.967,278.767
				c0,127.307,86.81,234.489,205.244,267.811l58.356,121.443c-0.498,0.022-1.019,0.022-1.54,0.068c0.521,0,1.042,0,1.54-0.022
				l25.058,52.154l23.315-51.158c61.051,6.134,106.957,29.473,106.957,43.303c0,15.981-61.073,28.952-136.384,28.952
				s-136.384-12.971-136.384-28.952c0-14.51,50.321-39.727,115.875-44.276c-106.278,2.173-189.828,21.188-189.285,44.276
				C186.852,759.788,279.661,792,395.536,792c115.875,0,210.948-33.32,209.816-79.635
				C604.832,689.955,526.963,671.439,425.303,668.36z M393.363,477.627c-111.031,0-201.033-88.667-201.033-198
				S282.332,81.604,393.363,81.604c111.032,0,201.034,88.667,201.034,198.022C594.396,388.938,504.395,477.627,393.363,477.627z"/>
		</g>
	</g>
</g>
<g>
</g>
<g>
</g>
<g>
</g>
<g>
</g>
<g>
</g>
<g>
</g>
<g>
</g>
<g>
</g>
<g>
</g>
<g>
</g>
<g>
</g>
<g>
</g>
<g>
</g>
<g>
</g>
<g>
</g>
</svg>
